# xmcd
#
# Track frame offsets:
#	150
#	5645
#	29170
#	50218
#	53061
#
# Disc length: 1366 seconds
#
# Revision: 0
# Processed by: cddbd v1.5.2PL0 Copyright (c) Steve Scherf et al.
# Submitted via: EasyCDDAExtractor 9.0.0.1
#
DISCID=44055405
DTITLE=Accept - Johanneshovs Isstadion Stockholm 03-05-86 Disc 2
DYEAR=1986
DGENRE=Metal
TTITLE0=Audience
TTITLE1=War Games
TTITLE2=Fast As A Shark
TTITLE3=Audience
TTITLE4=Balls To The Wall
EXTD=
EXTT0=
EXTT1=
EXTT2=
EXTT3=
EXTT4=
PLAYORDER=
